<svg width="502" height="130" viewBox="0 0 502 130" fill="none" xmlns="http://www.w3.org/2000/svg">
<path d="M100.737 -40V-31.1306H90.1803V-22.2612H79.6237V-13.3918H69.0671V-13.2795H-6.10352e-05V129.192H69.0671V129.305H470.33V120.548H480.887V111.678H491.443V102.809H502V-40H100.737ZM464.715 123.803H5.61515V-7.77822H464.715V123.803ZM475.272 114.934H470.33V-13.3918H85.2389V-16.6476H475.272V114.934ZM485.716 106.065H480.774V-22.2612H95.7955V-25.517H485.828V106.065H485.716ZM496.272 97.1952H491.331V-31.1306H106.352V-34.3864H496.385V97.1952H496.272Z" fill="#0A0A0A"/>
<path d="M496.273 -34.3864V97.1952H491.331V-31.1306H106.352V-34.3864H496.273Z" fill="white"/>
<path d="M485.716 -25.5171V106.065H480.887V-22.2612H95.7955V-25.5171H485.716Z" fill="white"/>
<path d="M475.272 -16.6476V114.934H470.33V-13.3918H85.2389V-16.6476H475.272Z" fill="white"/>
<path d="M464.715 -7.77823H5.61517V123.803H464.715V-7.77823Z" fill="white"/>
</svg>
