<svg width="502" height="130" viewBox="0 0 502 130" fill="none" xmlns="http://www.w3.org/2000/svg">
<path d="M401.263 -40V-31.1306H411.82V-22.2612H422.376V-13.3918H432.933V-13.2795H502V129.192H432.933V129.305H31.6698V120.548H21.1132V111.678H10.5566V102.809H3.05176e-05V-40H401.263ZM37.2851 123.803H496.385V-7.77822H37.2851V123.803ZM26.7284 114.934H31.6698V-13.3918H416.761V-16.6476H26.7284V114.934ZM16.2841 106.065H21.2255V-22.2612H406.205V-25.517H16.1718V106.065H16.2841ZM5.72754 97.1952H10.6689V-31.1306H395.648V-34.3864H5.61523V97.1952H5.72754Z" fill="#0A0A0A"/>
<path d="M5.72751 -34.3864V97.1952H10.6689V-31.1306H395.648V-34.3864H5.72751Z" fill="white"/>
<path d="M16.284 -25.5171V106.065H21.1131V-22.2612H406.204V-25.5171H16.284Z" fill="white"/>
<path d="M26.7284 -16.6476V114.934H31.6698V-13.3918H416.761V-16.6476H26.7284Z" fill="white"/>
<path d="M37.285 -7.77823H496.385V123.803H37.285V-7.77823Z" fill="white"/>
</svg>
